<?xml version="1.0"?>
<svg width="375" height="374.999991" xmlns="http://www.w3.org/2000/svg" xmlns:svg="http://www.w3.org/2000/svg" preserveAspectRatio="xMidYMid meet" version="1.0">
 <defs>
  <clipPath id="f6813fb829">
   <path clip-rule="nonzero" d="m10.42,37.5l354.17,0l0,280.95l-354.17,0l0,-280.95zm0,0" id="svg_1"/>
  </clipPath>
 </defs>
 <g class="layer">
  <title>Layer 1</title>
  <g clip-path="url(#f6813fb829)" id="svg_4" transform="matrix(1 0 0 1 0 0)">
   <path d="m345.82,314.91l-204.94,-198.44l46.63,-73.74l172.05,272.11l-13.59,0l-0.15,0.07zm-62.67,0l-67.67,-121.23l125.29,121.16l-57.48,0l-0.14,0.07zm-121.6,0l6.22,-76.56l108.73,76.49l-114.87,0l-0.08,0.07zm2.46,-74.25l-6.07,74.25l-54.29,0l60.36,-74.25zm43.6,-53.56l69.1,123.54l-107.78,-76.05l38.68,-47.49zm-68.32,-67.02l66.15,63.98l-106.49,130.85l-25.81,0l66.15,-194.83zm-7.37,10.56l-62.61,184.2l-53.85,0l116.46,-184.2zm232.41,185.06l-175.3,-277.38c-0.55,-0.84 -1.66,-1.07 -2.5,-0.53c-0.22,0.14 -0.4,0.32 -0.54,0.53l-175.31,277.38c-0.51,0.85 -0.25,1.97 0.61,2.49c0.27,0.17 0.59,0.26 0.91,0.26l350.61,0c1,-0.01 1.8,-0.83 1.78,-1.83c0,-0.33 -0.09,-0.64 -0.26,-0.92" fill="#000000" fill-rule="nonzero" id="svg_5"/>
  </g>
 </g>
</svg>