<svg xmlns="http://www.w3.org/2000/svg" xmlns:xlink="http://www.w3.org/1999/xlink" width="500" zoomAndPan="magnify" viewBox="0 0 375 374.999991" height="500" preserveAspectRatio="xMidYMid meet" version="1.0"><defs><g/></defs><g fill="#000000" fill-opacity="1"><g transform="translate(33.466051, 197.769517)"><g><path d="M 50.9375 -76.875 C 51.75 -77.09375 52.796875 -77.25 54.078125 -77.34375 C 55.367188 -77.4375 56.539062 -77.40625 57.59375 -77.25 C 58.65625 -77.09375 59.148438 -76.632812 59.078125 -75.875 C 58.671875 -71.664062 58.300781 -66.914062 57.96875 -61.625 C 57.644531 -56.34375 57.253906 -50.921875 56.796875 -45.359375 C 56.347656 -39.804688 55.703125 -34.476562 54.859375 -29.375 C 54.015625 -24.269531 52.875 -19.726562 51.4375 -15.75 C 50.007812 -11.769531 48.191406 -8.71875 45.984375 -6.59375 C 43.773438 -4.476562 41.035156 -3.710938 37.765625 -4.296875 C 35.867188 -4.703125 34.300781 -5.703125 33.0625 -7.296875 C 31.832031 -8.890625 30.851562 -10.765625 30.125 -12.921875 C 29.394531 -15.085938 28.835938 -17.15625 28.453125 -19.125 C 28.066406 -21.09375 27.707031 -22.625 27.375 -23.71875 C 27.4375 -23.125 27.347656 -22.125 27.109375 -20.71875 C 26.867188 -19.3125 26.535156 -17.75 26.109375 -16.03125 C 25.691406 -14.320312 25.238281 -12.695312 24.75 -11.15625 C 24.269531 -9.625 23.78125 -8.414062 23.28125 -7.53125 C 22.320312 -5.8125 21.019531 -4.421875 19.375 -3.359375 C 17.738281 -2.304688 16.035156 -1.65625 14.265625 -1.40625 C 12.503906 -1.15625 10.925781 -1.335938 9.53125 -1.953125 C 6.40625 -3.359375 4.125 -6.648438 2.6875 -11.828125 C 1.25 -17.003906 0.175781 -23.921875 -0.53125 -32.578125 C -0.800781 -35.972656 -1.0625 -39.722656 -1.3125 -43.828125 C -1.570312 -47.929688 -1.796875 -51.890625 -1.984375 -55.703125 C -2.171875 -59.523438 -2.300781 -62.753906 -2.375 -65.390625 C -2.457031 -68.023438 -2.476562 -69.566406 -2.4375 -70.015625 C -2.457031 -70.242188 -2.300781 -70.445312 -1.96875 -70.625 C -1.457031 -70.820312 -0.53125 -71.082031 0.8125 -71.40625 C 2.15625 -71.726562 3.632812 -71.671875 5.25 -71.234375 C 5.769531 -71.140625 5.984375 -70.859375 5.890625 -70.390625 C 5.835938 -70.097656 5.878906 -68.878906 6.015625 -66.734375 C 6.160156 -64.585938 6.347656 -61.941406 6.578125 -58.796875 C 6.816406 -55.648438 7.054688 -52.472656 7.296875 -49.265625 C 7.535156 -46.054688 7.738281 -43.207031 7.90625 -40.71875 C 8.082031 -38.238281 8.171875 -36.625 8.171875 -35.875 C 8.191406 -33.488281 8.316406 -30.742188 8.546875 -27.640625 C 8.785156 -24.546875 9.140625 -21.550781 9.609375 -18.65625 C 10.078125 -15.757812 10.660156 -13.394531 11.359375 -11.5625 C 12.066406 -9.738281 12.894531 -8.875 13.84375 -8.96875 C 14.738281 -9.0625 15.609375 -10.078125 16.453125 -12.015625 C 17.304688 -13.960938 18.109375 -16.382812 18.859375 -19.28125 C 19.617188 -22.1875 20.332031 -25.179688 21 -28.265625 C 21.664062 -31.359375 22.25 -34.117188 22.75 -36.546875 C 23.257812 -38.972656 23.617188 -40.609375 23.828125 -41.453125 C 24.035156 -42.304688 24.519531 -42.691406 25.28125 -42.609375 L 30.40625 -42.78125 C 31.363281 -42.875 31.894531 -42.363281 32 -41.25 C 32.09375 -40.375 32.265625 -38.832031 32.515625 -36.625 C 32.773438 -34.414062 33.132812 -31.914062 33.59375 -29.125 C 34.0625 -26.332031 34.609375 -23.628906 35.234375 -21.015625 C 35.859375 -18.398438 36.5625 -16.179688 37.34375 -14.359375 C 38.125 -12.535156 38.96875 -11.523438 39.875 -11.328125 C 40.695312 -11.242188 41.484375 -12.300781 42.234375 -14.5 C 42.984375 -16.707031 43.679688 -19.628906 44.328125 -23.265625 C 44.984375 -26.910156 45.578125 -30.914062 46.109375 -35.28125 C 46.648438 -39.65625 47.125 -44.09375 47.53125 -48.59375 C 47.9375 -53.101562 48.300781 -57.3125 48.625 -61.21875 C 48.945312 -65.125 49.21875 -68.40625 49.4375 -71.0625 C 49.664062 -73.726562 49.820312 -75.367188 49.90625 -75.984375 C 50.15625 -76.535156 50.5 -76.832031 50.9375 -76.875 Z M 50.9375 -76.875 "/></g></g></g><g fill="#000000" fill-opacity="1"><g transform="translate(99.841166, 191.209087)"><g><path d="M 54.0625 -70.140625 C 54.46875 -69.734375 54.679688 -69.25 54.703125 -68.6875 C 54.722656 -68.132812 54.578125 -67.578125 54.265625 -67.015625 C 51.816406 -62.992188 48.125 -59.617188 43.1875 -56.890625 C 44.269531 -52.753906 44.769531 -47.695312 44.6875 -41.71875 C 44.664062 -38.96875 44.3125 -35.804688 43.625 -32.234375 C 42.9375 -28.660156 41.890625 -25.09375 40.484375 -21.53125 C 39.085938 -17.976562 37.3125 -14.675781 35.15625 -11.625 C 33.007812 -8.582031 30.457031 -6.171875 27.5 -4.390625 C 24.550781 -2.609375 21.207031 -1.757812 17.46875 -1.84375 C 14.101562 -1.957031 11.285156 -2.753906 9.015625 -4.234375 C 6.742188 -5.722656 4.894531 -7.679688 3.46875 -10.109375 C 2.039062 -12.546875 0.984375 -15.144531 0.296875 -17.90625 C -0.390625 -20.664062 -0.84375 -23.394531 -1.0625 -26.09375 C -1.289062 -28.789062 -1.363281 -31.1875 -1.28125 -33.28125 C -1.113281 -36.875 -0.613281 -40.460938 0.21875 -44.046875 C 1.0625 -47.628906 2.039062 -50.941406 3.15625 -53.984375 C 4.269531 -57.035156 5.410156 -59.601562 6.578125 -61.6875 C 7.742188 -63.78125 8.703125 -65.164062 9.453125 -65.84375 C 9.671875 -66.007812 9.859375 -66.195312 10.015625 -66.40625 C 10.179688 -66.613281 10.378906 -66.765625 10.609375 -66.859375 C 10.984375 -68.234375 11.703125 -69.53125 12.765625 -70.75 C 13.835938 -71.96875 15.300781 -73.003906 17.15625 -73.859375 C 18.800781 -74.609375 20.695312 -75.070312 22.84375 -75.25 C 24.988281 -75.425781 27.191406 -75.175781 29.453125 -74.5 C 31.710938 -73.832031 33.878906 -72.578125 35.953125 -70.734375 C 38.035156 -68.898438 39.800781 -66.304688 41.25 -62.953125 C 42.9375 -64.003906 44.570312 -65.1875 46.15625 -66.5 C 47.738281 -67.8125 49.164062 -69.171875 50.4375 -70.578125 C 51.238281 -71.460938 52.171875 -71.472656 53.234375 -70.609375 Z M 22.1875 -69.4375 C 21.207031 -69.414062 20.265625 -69.101562 19.359375 -68.5 C 18.453125 -67.894531 17.898438 -67.078125 17.703125 -66.046875 C 17.515625 -65.023438 17.90625 -63.910156 18.875 -62.703125 C 19.851562 -61.492188 21.742188 -60.273438 24.546875 -59.046875 C 25.867188 -58.515625 27.394531 -58.316406 29.125 -58.453125 C 30.863281 -58.585938 32.671875 -59.007812 34.546875 -59.71875 C 33.535156 -62.289062 32.289062 -64.285156 30.8125 -65.703125 C 29.332031 -67.128906 27.816406 -68.117188 26.265625 -68.671875 C 24.722656 -69.222656 23.363281 -69.476562 22.1875 -69.4375 Z M 36.390625 -44.359375 C 36.503906 -46.171875 36.519531 -47.851562 36.4375 -49.40625 C 36.363281 -50.96875 36.226562 -52.40625 36.03125 -53.71875 C 35.082031 -53.476562 34.097656 -53.234375 33.078125 -52.984375 C 32.066406 -52.734375 31.046875 -52.519531 30.015625 -52.34375 C 26.648438 -51.78125 23.582031 -51.921875 20.8125 -52.765625 C 18.050781 -53.617188 15.800781 -54.890625 14.0625 -56.578125 C 13.289062 -55.304688 12.40625 -53.488281 11.40625 -51.125 C 10.414062 -48.757812 9.53125 -45.898438 8.75 -42.546875 C 7.976562 -39.191406 7.578125 -35.347656 7.546875 -31.015625 C 7.515625 -25.273438 8.140625 -20.828125 9.421875 -17.671875 C 10.703125 -14.523438 12.363281 -12.421875 14.40625 -11.359375 C 16.445312 -10.296875 18.488281 -9.941406 20.53125 -10.296875 C 22.5 -10.710938 24.617188 -12.242188 26.890625 -14.890625 C 29.171875 -17.535156 31.222656 -21.3125 33.046875 -26.21875 C 34.867188 -31.132812 35.984375 -37.179688 36.390625 -44.359375 Z M 36.390625 -44.359375 "/></g></g></g><g fill="#000000" fill-opacity="1"><g transform="translate(155.596271, 185.698324)"><g><path d="M 36.125 -70.703125 C 38.5625 -70.941406 40.519531 -70.148438 42 -68.328125 C 43.488281 -66.503906 44.628906 -64.03125 45.421875 -60.90625 C 46.222656 -57.78125 46.753906 -54.3125 47.015625 -50.5 C 47.273438 -46.695312 47.398438 -42.953125 47.390625 -39.265625 C 47.378906 -35.578125 47.335938 -32.238281 47.265625 -29.25 C 47.191406 -26.269531 47.15625 -24.023438 47.15625 -22.515625 C 47.21875 -18.078125 47.101562 -14.296875 46.8125 -11.171875 C 46.519531 -8.046875 46.203125 -6.390625 45.859375 -6.203125 C 45.578125 -6.023438 44.851562 -5.988281 43.6875 -6.09375 C 42.53125 -6.207031 41.414062 -6.414062 40.34375 -6.71875 C 39.269531 -7.019531 38.707031 -7.429688 38.65625 -7.953125 C 38.632812 -8.179688 38.6875 -9.34375 38.8125 -11.4375 C 38.945312 -13.53125 39.085938 -16.238281 39.234375 -19.5625 C 39.390625 -22.894531 39.519531 -26.503906 39.625 -30.390625 C 39.726562 -34.273438 39.769531 -38.148438 39.75 -42.015625 C 39.738281 -45.890625 39.59375 -49.410156 39.3125 -52.578125 C 39.039062 -55.753906 38.625 -58.285156 38.0625 -60.171875 C 37.507812 -62.054688 36.710938 -62.945312 35.671875 -62.84375 C 34.648438 -62.75 33.363281 -61.488281 31.8125 -59.0625 C 30.257812 -56.632812 28.632812 -53.472656 26.9375 -49.578125 C 25.238281 -45.691406 23.53125 -41.519531 21.8125 -37.0625 C 20.09375 -32.601562 18.492188 -28.238281 17.015625 -23.96875 C 15.535156 -19.695312 14.265625 -15.960938 13.203125 -12.765625 C 12.140625 -9.566406 11.410156 -7.3125 11.015625 -6 C 10.398438 -4.070312 9.789062 -2.726562 9.1875 -1.96875 C 8.59375 -1.207031 8.253906 -0.859375 8.171875 -0.921875 C 8.179688 -0.847656 8.1875 -0.8125 8.1875 -0.8125 C 8.1875 -0.8125 7.664062 -0.757812 6.625 -0.65625 C 5.59375 -0.550781 4.492188 -0.535156 3.328125 -0.609375 C 2.171875 -0.691406 1.457031 -1.007812 1.1875 -1.5625 C 1.1875 -3.132812 1.191406 -5.539062 1.203125 -8.78125 C 1.210938 -12.019531 1.285156 -15.75 1.421875 -19.96875 C 1.566406 -24.195312 1.710938 -28.570312 1.859375 -33.09375 C 2.015625 -37.613281 2.171875 -41.90625 2.328125 -45.96875 C 2.484375 -50.039062 2.613281 -53.59375 2.71875 -56.625 C 2.832031 -59.65625 2.945312 -61.734375 3.0625 -62.859375 C 3.3125 -65.566406 3.6875 -67.1875 4.1875 -67.71875 C 4.695312 -68.25 5.285156 -68.550781 5.953125 -68.625 C 8.546875 -68.800781 10.148438 -68.75 10.765625 -68.46875 C 11.390625 -68.195312 11.625 -67.351562 11.46875 -65.9375 C 11.382812 -65.25 11.296875 -63.835938 11.203125 -61.703125 C 11.117188 -59.578125 11.035156 -57.039062 10.953125 -54.09375 C 10.878906 -51.144531 10.796875 -48.046875 10.703125 -44.796875 C 10.617188 -41.546875 10.519531 -38.425781 10.40625 -35.4375 C 10.289062 -32.445312 10.191406 -29.867188 10.109375 -27.703125 C 10.023438 -25.535156 9.945312 -24.070312 9.875 -23.3125 C 10.15625 -24.894531 10.695312 -27.109375 11.5 -29.953125 C 12.3125 -32.796875 13.347656 -35.953125 14.609375 -39.421875 C 15.867188 -42.898438 17.304688 -46.429688 18.921875 -50.015625 C 20.535156 -53.609375 22.269531 -56.929688 24.125 -59.984375 C 25.976562 -63.035156 27.925781 -65.535156 29.96875 -67.484375 C 32.007812 -69.429688 34.0625 -70.503906 36.125 -70.703125 Z M 36.125 -70.703125 "/></g></g></g><g fill="#000000" fill-opacity="1"><g transform="translate(216.882631, 179.640859)"><g><path d="M 39.375 -59.40625 C 39.875 -56.5625 40.015625 -53.191406 39.796875 -49.296875 C 39.585938 -45.398438 39.007812 -41.300781 38.0625 -37 C 37.113281 -32.695312 35.707031 -28.476562 33.84375 -24.34375 C 31.976562 -20.21875 29.632812 -16.410156 26.8125 -12.921875 C 24 -9.441406 20.632812 -6.578125 16.71875 -4.328125 C 12.8125 -2.085938 8.304688 -0.75 3.203125 -0.3125 C 2.203125 -0.664062 1.613281 -1.390625 1.4375 -2.484375 C 1.257812 -3.585938 1.164062 -4.175781 1.15625 -4.25 C 1.15625 -4.25 1.148438 -4.65625 1.140625 -5.46875 C 1.128906 -6.289062 1.101562 -7.238281 1.0625 -8.3125 C 1.03125 -9.394531 1.023438 -10.398438 1.046875 -11.328125 C 1.066406 -12.265625 1.109375 -12.84375 1.171875 -13.0625 L 2.21875 -57.859375 C 2.414062 -61.085938 2.554688 -63.617188 2.640625 -65.453125 C 2.722656 -67.285156 2.921875 -68.679688 3.234375 -69.640625 C 3.546875 -70.597656 4.125 -71.304688 4.96875 -71.765625 C 5.820312 -72.222656 7.117188 -72.648438 8.859375 -73.046875 C 10.609375 -73.453125 13.015625 -74.019531 16.078125 -74.75 C 20.023438 -75.375 23.394531 -75.320312 26.1875 -74.59375 C 28.976562 -73.863281 31.289062 -72.691406 33.125 -71.078125 C 34.96875 -69.472656 36.378906 -67.640625 37.359375 -65.578125 C 38.347656 -63.515625 39.019531 -61.457031 39.375 -59.40625 Z M 10.3125 -11.96875 C 13.21875 -12.695312 15.878906 -14.425781 18.296875 -17.15625 C 20.710938 -19.894531 22.847656 -23.195312 24.703125 -27.0625 C 26.554688 -30.9375 28.015625 -34.992188 29.078125 -39.234375 C 30.140625 -43.472656 30.757812 -47.519531 30.9375 -51.375 C 31.125 -55.226562 30.78125 -58.546875 29.90625 -61.328125 C 29.03125 -64.117188 27.550781 -65.890625 25.46875 -66.640625 C 22.988281 -67.585938 20.671875 -67.859375 18.515625 -67.453125 C 16.367188 -67.054688 14 -66.320312 11.40625 -65.25 C 11.414062 -65.175781 11.421875 -64.953125 11.421875 -64.578125 C 11.429688 -64.210938 11.441406 -63.992188 11.453125 -63.921875 Z M 10.3125 -11.96875 "/></g></g></g><g fill="#000000" fill-opacity="1"><g transform="translate(264.119585, 174.972019)"><g><path d="M 35.6875 -73.03125 C 39 -73.351562 41.84375 -72.617188 44.21875 -70.828125 C 46.59375 -69.046875 48.238281 -66.546875 49.15625 -63.328125 C 50.070312 -60.109375 49.9375 -56.539062 48.75 -52.625 C 47.738281 -49.320312 46.164062 -46.207031 44.03125 -43.28125 C 41.90625 -40.351562 39.457031 -37.648438 36.6875 -35.171875 C 33.914062 -32.703125 31.054688 -30.519531 28.109375 -28.625 C 25.171875 -26.738281 22.390625 -25.148438 19.765625 -23.859375 C 22.210938 -20.898438 24.734375 -18.539062 27.328125 -16.78125 C 29.929688 -15.019531 32.328125 -13.757812 34.515625 -13 C 36.710938 -12.25 38.410156 -11.828125 39.609375 -11.734375 C 40.578125 -11.679688 41.191406 -11.179688 41.453125 -10.234375 C 41.554688 -9.878906 41.648438 -9.441406 41.734375 -8.921875 C 41.828125 -8.410156 41.875 -7.785156 41.875 -7.046875 C 41.925781 -6.523438 41.785156 -6.0625 41.453125 -5.65625 C 41.117188 -5.257812 40.65625 -5.03125 40.0625 -4.96875 C 35.976562 -4.789062 32.375 -5.253906 29.25 -6.359375 C 26.125 -7.460938 23.4375 -8.867188 21.1875 -10.578125 C 18.9375 -12.296875 17.0625 -14.101562 15.5625 -16 C 14.070312 -17.90625 12.929688 -19.523438 12.140625 -20.859375 C 11.984375 -20.835938 11.816406 -20.800781 11.640625 -20.75 C 11.460938 -20.695312 11.300781 -20.664062 11.15625 -20.65625 L 9.671875 -1.640625 C 9.703125 -1.265625 9.492188 -1.050781 9.046875 -1 L 1.328125 -0.125 C 0.734375 -0.0703125 0.484375 -0.347656 0.578125 -0.953125 L 6.078125 -73.109375 C 6.046875 -73.390625 6.242188 -73.625 6.671875 -73.8125 L 14.484375 -74.9375 C 15.066406 -75 15.316406 -74.726562 15.234375 -74.125 L 13.96875 -57.578125 C 15.507812 -60.035156 17.320312 -62.375 19.40625 -64.59375 C 21.5 -66.8125 23.90625 -68.6875 26.625 -70.21875 C 29.34375 -71.757812 32.363281 -72.695312 35.6875 -73.03125 Z M 42.421875 -59.15625 C 42.328125 -61.53125 41.898438 -63.195312 41.140625 -64.15625 C 40.378906 -65.125 39.503906 -65.691406 38.515625 -65.859375 C 37.535156 -66.023438 36.597656 -66.0625 35.703125 -65.96875 C 33.710938 -65.78125 31.601562 -64.71875 29.375 -62.78125 C 27.144531 -60.84375 24.976562 -58.445312 22.875 -55.59375 C 20.78125 -52.75 18.832031 -49.859375 17.03125 -46.921875 C 15.226562 -43.984375 13.765625 -41.457031 12.640625 -39.34375 L 11.84375 -29.3125 C 14.070312 -30.132812 16.582031 -31.332031 19.375 -32.90625 C 22.164062 -34.488281 24.925781 -36.328125 27.65625 -38.421875 C 30.382812 -40.523438 32.898438 -42.765625 35.203125 -45.140625 C 37.503906 -47.523438 39.316406 -49.921875 40.640625 -52.328125 C 41.960938 -54.734375 42.554688 -57.007812 42.421875 -59.15625 Z M 42.421875 -59.15625 "/></g></g></g><g fill="#000000" fill-opacity="1"><g transform="translate(321.31281, 169.319114)"><g><path d="M 11.328125 -1.6875 C 10.722656 -1.175781 9.878906 -0.921875 8.796875 -0.921875 C 7.710938 -0.921875 6.742188 -1.234375 5.890625 -1.859375 C 5.046875 -2.484375 4.597656 -3.460938 4.546875 -4.796875 C 4.554688 -5.390625 4.691406 -6.070312 4.953125 -6.84375 C 5.210938 -7.625 5.742188 -8.257812 6.546875 -8.75 C 7.359375 -9.238281 8.566406 -9.300781 10.171875 -8.9375 C 11.460938 -8.695312 12.269531 -8.066406 12.59375 -7.046875 C 12.914062 -6.035156 12.941406 -5.015625 12.671875 -3.984375 C 12.398438 -2.953125 11.953125 -2.1875 11.328125 -1.6875 Z M 11.328125 -1.6875 "/></g></g></g><g fill="#000000" fill-opacity="1"><g transform="translate(79.664318, 278.77303)"><g><path d="M 39.375 -59.40625 C 39.875 -56.5625 40.015625 -53.191406 39.796875 -49.296875 C 39.585938 -45.398438 39.007812 -41.300781 38.0625 -37 C 37.113281 -32.695312 35.707031 -28.476562 33.84375 -24.34375 C 31.976562 -20.21875 29.632812 -16.410156 26.8125 -12.921875 C 24 -9.441406 20.632812 -6.578125 16.71875 -4.328125 C 12.8125 -2.085938 8.304688 -0.75 3.203125 -0.3125 C 2.203125 -0.664062 1.613281 -1.390625 1.4375 -2.484375 C 1.257812 -3.585938 1.164062 -4.175781 1.15625 -4.25 C 1.15625 -4.25 1.148438 -4.65625 1.140625 -5.46875 C 1.128906 -6.289062 1.101562 -7.238281 1.0625 -8.3125 C 1.03125 -9.394531 1.023438 -10.398438 1.046875 -11.328125 C 1.066406 -12.265625 1.109375 -12.84375 1.171875 -13.0625 L 2.21875 -57.859375 C 2.414062 -61.085938 2.554688 -63.617188 2.640625 -65.453125 C 2.722656 -67.285156 2.921875 -68.679688 3.234375 -69.640625 C 3.546875 -70.597656 4.125 -71.304688 4.96875 -71.765625 C 5.820312 -72.222656 7.117188 -72.648438 8.859375 -73.046875 C 10.609375 -73.453125 13.015625 -74.019531 16.078125 -74.75 C 20.023438 -75.375 23.394531 -75.320312 26.1875 -74.59375 C 28.976562 -73.863281 31.289062 -72.691406 33.125 -71.078125 C 34.96875 -69.472656 36.378906 -67.640625 37.359375 -65.578125 C 38.347656 -63.515625 39.019531 -61.457031 39.375 -59.40625 Z M 10.3125 -11.96875 C 13.21875 -12.695312 15.878906 -14.425781 18.296875 -17.15625 C 20.710938 -19.894531 22.847656 -23.195312 24.703125 -27.0625 C 26.554688 -30.9375 28.015625 -34.992188 29.078125 -39.234375 C 30.140625 -43.472656 30.757812 -47.519531 30.9375 -51.375 C 31.125 -55.226562 30.78125 -58.546875 29.90625 -61.328125 C 29.03125 -64.117188 27.550781 -65.890625 25.46875 -66.640625 C 22.988281 -67.585938 20.671875 -67.859375 18.515625 -67.453125 C 16.367188 -67.054688 14 -66.320312 11.40625 -65.25 C 11.414062 -65.175781 11.421875 -64.953125 11.421875 -64.578125 C 11.429688 -64.210938 11.441406 -63.992188 11.453125 -63.921875 Z M 10.3125 -11.96875 "/></g></g></g><g fill="#000000" fill-opacity="1"><g transform="translate(126.901272, 274.10419)"><g><path d="M -0.703125 -28.515625 C 0.535156 -28.796875 1.878906 -28.953125 3.328125 -28.984375 C 4.785156 -29.015625 5.585938 -28.628906 5.734375 -27.828125 C 5.773438 -27.453125 5.773438 -26.316406 5.734375 -24.421875 C 5.703125 -22.523438 5.628906 -20.242188 5.515625 -17.578125 C 5.410156 -14.921875 5.28125 -12.316406 5.125 -9.765625 C 4.96875 -7.222656 4.8125 -5.066406 4.65625 -3.296875 C 4.5 -1.535156 4.34375 -0.613281 4.1875 -0.53125 C 3.90625 -0.425781 3.226562 -0.320312 2.15625 -0.21875 C 1.09375 -0.113281 0.0859375 -0.179688 -0.859375 -0.421875 C -1.816406 -0.660156 -2.332031 -1.109375 -2.40625 -1.765625 C -2.46875 -2.429688 -2.507812 -3.617188 -2.53125 -5.328125 C -2.550781 -7.035156 -2.578125 -8.96875 -2.609375 -11.125 C -2.640625 -13.28125 -2.660156 -15.363281 -2.671875 -17.375 C -2.679688 -19.394531 -2.695312 -21.070312 -2.71875 -22.40625 C -2.738281 -23.738281 -2.75 -24.40625 -2.75 -24.40625 C -2.75 -24.40625 -2.738281 -24.703125 -2.71875 -25.296875 C -2.707031 -25.898438 -2.546875 -26.550781 -2.234375 -27.25 C -1.929688 -27.945312 -1.421875 -28.367188 -0.703125 -28.515625 Z M 4.234375 -34.0625 C 3.535156 -33.613281 2.644531 -33.390625 1.5625 -33.390625 C 0.476562 -33.390625 -0.484375 -33.722656 -1.328125 -34.390625 C -2.171875 -35.054688 -2.625 -36.050781 -2.6875 -37.375 C -2.664062 -37.976562 -2.53125 -38.679688 -2.28125 -39.484375 C -2.03125 -40.285156 -1.5 -40.929688 -0.6875 -41.421875 C 0.125 -41.910156 1.296875 -41.929688 2.828125 -41.484375 C 4.191406 -41.179688 5.039062 -40.488281 5.375 -39.40625 C 5.707031 -38.320312 5.722656 -37.242188 5.421875 -36.171875 C 5.117188 -35.097656 4.722656 -34.394531 4.234375 -34.0625 Z M 4.234375 -34.0625 "/></g></g></g><g fill="#000000" fill-opacity="1"><g transform="translate(142.499417, 272.56249)"><g><path d="M 28.421875 0.53125 C 30.117188 0.363281 31.898438 0.28125 33.765625 0.28125 C 35.628906 0.289062 37.585938 0.492188 39.640625 0.890625 C 40.304688 0.960938 40.800781 1.28125 41.125 1.84375 C 41.445312 2.414062 41.445312 3.019531 41.125 3.65625 L 40.390625 5.15625 C 40.015625 5.945312 39.304688 6.316406 38.265625 6.265625 C 37.273438 6.066406 35.882812 5.941406 34.09375 5.890625 C 32.300781 5.847656 30.320312 6.125 28.15625 6.71875 C 27.800781 10.769531 27.4375 14.46875 27.0625 17.8125 C 26.695312 21.164062 26.300781 23.757812 25.875 25.59375 C 25.0625 28.726562 23.789062 31.71875 22.0625 34.5625 C 20.332031 37.414062 18.203125 39.582031 15.671875 41.0625 C 13.148438 42.539062 10.238281 42.847656 6.9375 41.984375 C 4.03125 41.148438 1.992188 39.582031 0.828125 37.28125 C -0.328125 34.988281 -0.757812 32.257812 -0.46875 29.09375 C -0.1875 25.925781 0.722656 22.742188 2.265625 19.546875 C 2.992188 17.910156 4.125 15.992188 5.65625 13.796875 C 7.195312 11.609375 9.203125 9.457031 11.671875 7.34375 C 14.140625 5.226562 17.175781 3.546875 20.78125 2.296875 C 20.925781 0.0546875 21 -2.015625 21 -3.921875 C 21 -5.828125 20.984375 -7.707031 20.953125 -9.5625 C 19.535156 -7.332031 17.890625 -5.34375 16.015625 -3.59375 C 14.140625 -1.84375 12.019531 -0.851562 9.65625 -0.625 C 6.46875 -0.457031 3.5625 -1.414062 0.9375 -3.5 C -1.675781 -5.582031 -3.175781 -8.914062 -3.5625 -13.5 C -3.832031 -17.050781 -3.207031 -20.144531 -1.6875 -22.78125 C -0.164062 -25.425781 1.78125 -27.519531 4.15625 -29.0625 C 6.539062 -30.613281 8.882812 -31.460938 11.1875 -31.609375 C 13.1875 -31.722656 14.992188 -31.488281 16.609375 -30.90625 C 18.234375 -30.320312 19.679688 -29.570312 20.953125 -28.65625 C 21.054688 -29.257812 21.144531 -29.898438 21.21875 -30.578125 C 21.289062 -31.253906 21.332031 -31.929688 21.34375 -32.609375 C 21.425781 -33.359375 21.457031 -33.992188 21.4375 -34.515625 C 21.425781 -35.035156 21.453125 -35.375 21.515625 -35.53125 C 21.492188 -35.757812 21.65625 -35.960938 22 -36.140625 C 22.507812 -36.328125 23.4375 -36.582031 24.78125 -36.90625 C 26.125 -37.226562 27.597656 -37.210938 29.203125 -36.859375 C 29.671875 -36.679688 29.890625 -36.363281 29.859375 -35.90625 C 29.753906 -35.375 29.703125 -34.378906 29.703125 -32.921875 C 29.703125 -31.472656 29.6875 -29.703125 29.65625 -27.609375 C 29.863281 -24.066406 29.796875 -19.875 29.453125 -15.03125 C 29.117188 -10.1875 28.773438 -5 28.421875 0.53125 Z M 18.59375 23.078125 C 18.96875 21.546875 19.28125 19.628906 19.53125 17.328125 C 19.78125 15.035156 19.992188 12.503906 20.171875 9.734375 C 17.285156 11.429688 14.5625 13.859375 12 17.015625 C 9.445312 20.171875 7.585938 24.453125 6.421875 29.859375 C 5.378906 33.691406 5.992188 36.125 8.265625 37.15625 C 8.878906 37.40625 9.84375 37.203125 11.15625 36.546875 C 12.46875 35.898438 13.816406 34.5 15.203125 32.34375 C 16.597656 30.195312 17.726562 27.109375 18.59375 23.078125 Z M 9.171875 -7.828125 C 9.910156 -7.898438 10.898438 -8.59375 12.140625 -9.90625 C 13.390625 -11.226562 14.6875 -13 16.03125 -15.21875 C 17.375 -17.4375 18.503906 -19.929688 19.421875 -22.703125 C 18.597656 -23.515625 17.625 -24.179688 16.5 -24.703125 C 15.375 -25.222656 14.101562 -25.453125 12.6875 -25.390625 C 11.195312 -25.316406 9.78125 -24.726562 8.4375 -23.625 C 7.09375 -22.519531 6.023438 -21.09375 5.234375 -19.34375 C 4.441406 -17.59375 4.117188 -15.601562 4.265625 -13.375 C 4.359375 -11.675781 4.867188 -10.296875 5.796875 -9.234375 C 6.722656 -8.171875 7.847656 -7.703125 9.171875 -7.828125 Z M 9.171875 -7.828125 "/></g></g></g><g fill="#000000" fill-opacity="1"><g transform="translate(184.094496, 268.451285)"><g><path d="M -0.703125 -28.515625 C 0.535156 -28.796875 1.878906 -28.953125 3.328125 -28.984375 C 4.785156 -29.015625 5.585938 -28.628906 5.734375 -27.828125 C 5.773438 -27.453125 5.773438 -26.316406 5.734375 -24.421875 C 5.703125 -22.523438 5.628906 -20.242188 5.515625 -17.578125 C 5.410156 -14.921875 5.28125 -12.316406 5.125 -9.765625 C 4.96875 -7.222656 4.8125 -5.066406 4.65625 -3.296875 C 4.5 -1.535156 4.34375 -0.613281 4.1875 -0.53125 C 3.90625 -0.425781 3.226562 -0.320312 2.15625 -0.21875 C 1.09375 -0.113281 0.0859375 -0.179688 -0.859375 -0.421875 C -1.816406 -0.660156 -2.332031 -1.109375 -2.40625 -1.765625 C -2.46875 -2.429688 -2.507812 -3.617188 -2.53125 -5.328125 C -2.550781 -7.035156 -2.578125 -8.96875 -2.609375 -11.125 C -2.640625 -13.28125 -2.660156 -15.363281 -2.671875 -17.375 C -2.679688 -19.394531 -2.695312 -21.070312 -2.71875 -22.40625 C -2.738281 -23.738281 -2.75 -24.40625 -2.75 -24.40625 C -2.75 -24.40625 -2.738281 -24.703125 -2.71875 -25.296875 C -2.707031 -25.898438 -2.546875 -26.550781 -2.234375 -27.25 C -1.929688 -27.945312 -1.421875 -28.367188 -0.703125 -28.515625 Z M 4.234375 -34.0625 C 3.535156 -33.613281 2.644531 -33.390625 1.5625 -33.390625 C 0.476562 -33.390625 -0.484375 -33.722656 -1.328125 -34.390625 C -2.171875 -35.054688 -2.625 -36.050781 -2.6875 -37.375 C -2.664062 -37.976562 -2.53125 -38.679688 -2.28125 -39.484375 C -2.03125 -40.285156 -1.5 -40.929688 -0.6875 -41.421875 C 0.125 -41.910156 1.296875 -41.929688 2.828125 -41.484375 C 4.191406 -41.179688 5.039062 -40.488281 5.375 -39.40625 C 5.707031 -38.320312 5.722656 -37.242188 5.421875 -36.171875 C 5.117188 -35.097656 4.722656 -34.394531 4.234375 -34.0625 Z M 4.234375 -34.0625 "/></g></g></g><g fill="#000000" fill-opacity="1"><g transform="translate(199.692641, 266.909585)"><g><path d="M 35.546875 -23.515625 C 36.546875 -23.160156 36.828125 -22.585938 36.390625 -21.796875 C 36.085938 -21.035156 35.253906 -19.617188 33.890625 -17.546875 C 32.535156 -15.484375 30.820312 -13.265625 28.75 -10.890625 C 26.675781 -8.523438 24.3125 -6.425781 21.65625 -4.59375 C 19 -2.769531 16.179688 -1.65625 13.203125 -1.25 C 10.234375 -0.84375 7.207031 -1.601562 4.125 -3.53125 C 2.769531 -4.445312 1.519531 -5.609375 0.375 -7.015625 C -0.769531 -8.429688 -1.726562 -10.441406 -2.5 -13.046875 C -3.28125 -15.648438 -3.816406 -19.171875 -4.109375 -23.609375 C -4.410156 -28.054688 -4.34375 -33.722656 -3.90625 -40.609375 C -3.863281 -41.660156 -3.804688 -42.632812 -3.734375 -43.53125 C -3.671875 -44.4375 -3.609375 -45.300781 -3.546875 -46.125 C -5.234375 -45.726562 -6.726562 -45.375 -8.03125 -45.0625 C -9.34375 -44.75 -10.394531 -44.476562 -11.1875 -44.25 C -12.132812 -44 -12.800781 -44.34375 -13.1875 -45.28125 C -13.40625 -46 -13.691406 -47.421875 -14.046875 -49.546875 C -14.140625 -50.441406 -13.832031 -51.035156 -13.125 -51.328125 C -11.90625 -51.898438 -10.410156 -52.4375 -8.640625 -52.9375 C -6.867188 -53.445312 -4.957031 -53.910156 -2.90625 -54.328125 C -2.550781 -58.984375 -2.179688 -62.390625 -1.796875 -64.546875 C -1.410156 -66.710938 -1.109375 -68.515625 -0.890625 -69.953125 C -0.734375 -70.785156 -0.195312 -71.414062 0.71875 -71.84375 C 1.644531 -72.269531 2.644531 -72.5 3.71875 -72.53125 C 4.800781 -72.5625 5.742188 -72.429688 6.546875 -72.140625 C 7.359375 -71.847656 7.75 -71.472656 7.71875 -71.015625 C 7.6875 -69.984375 7.609375 -69.125 7.484375 -68.4375 C 7.359375 -67.75 7.207031 -66.988281 7.03125 -66.15625 C 6.863281 -65.320312 6.6875 -64.113281 6.5 -62.53125 C 6.320312 -60.945312 6.082031 -58.726562 5.78125 -55.875 C 8.769531 -56.3125 11.570312 -56.695312 14.1875 -57.03125 C 16.800781 -57.363281 18.8125 -57.597656 20.21875 -57.734375 C 20.726562 -57.785156 21.164062 -57.644531 21.53125 -57.3125 C 21.90625 -56.976562 22.070312 -56.585938 22.03125 -56.140625 C 22.03125 -55.472656 22.015625 -54.722656 21.984375 -53.890625 C 21.960938 -53.066406 21.914062 -52.25 21.84375 -51.4375 C 21.78125 -50.445312 21.234375 -49.898438 20.203125 -49.796875 C 18.054688 -49.734375 15.660156 -49.515625 13.015625 -49.140625 C 10.367188 -48.773438 7.726562 -48.351562 5.09375 -47.875 C 5.113281 -46.976562 5.078125 -46.039062 4.984375 -45.0625 C 4.890625 -44.082031 4.785156 -43.03125 4.671875 -41.90625 C 4.378906 -36.675781 4.171875 -31.835938 4.046875 -27.390625 C 3.929688 -22.941406 4.210938 -19.164062 4.890625 -16.0625 C 5.566406 -12.96875 6.90625 -10.738281 8.90625 -9.375 C 10.332031 -8.394531 11.914062 -8.195312 13.65625 -8.78125 C 15.394531 -9.363281 17.097656 -10.382812 18.765625 -11.84375 C 20.441406 -13.3125 22.015625 -14.898438 23.484375 -16.609375 C 24.953125 -18.328125 26.175781 -19.882812 27.15625 -21.28125 C 28.132812 -22.6875 28.753906 -23.585938 29.015625 -23.984375 C 29.335938 -24.535156 29.878906 -24.734375 30.640625 -24.578125 Z M 35.546875 -23.515625 "/></g></g></g><g fill="#000000" fill-opacity="1"><g transform="translate(232.437709, 263.673105)"><g><path d="M 52.890625 -22.203125 C 53.285156 -21.867188 53.328125 -21.425781 53.015625 -20.875 C 51.140625 -17.9375 48.957031 -15.132812 46.46875 -12.46875 C 43.976562 -9.800781 41.382812 -7.609375 38.6875 -5.890625 C 35.988281 -4.171875 33.378906 -3.222656 30.859375 -3.046875 C 28.128906 -2.847656 25.953125 -3.597656 24.328125 -5.296875 C 22.703125 -7.003906 21.507812 -9.085938 20.75 -11.546875 C 19.375 -8.953125 17.632812 -6.582031 15.53125 -4.4375 C 13.4375 -2.289062 11.0625 -1.085938 8.40625 -0.828125 C 5.226562 -0.585938 2.328125 -1.53125 -0.296875 -3.65625 C -2.929688 -5.78125 -4.441406 -9.132812 -4.828125 -13.71875 C -5.085938 -17.257812 -4.457031 -20.351562 -2.9375 -23 C -1.414062 -25.65625 0.53125 -27.75 2.90625 -29.28125 C 5.289062 -30.8125 7.628906 -31.65625 9.921875 -31.8125 C 11.929688 -31.945312 13.742188 -31.71875 15.359375 -31.125 C 16.984375 -30.53125 18.394531 -29.78125 19.59375 -28.875 C 19.738281 -30.519531 19.878906 -31.941406 20.015625 -33.140625 C 20.160156 -34.347656 20.242188 -35.21875 20.265625 -35.75 C 20.242188 -35.957031 20.40625 -36.15625 20.75 -36.34375 C 21.257812 -36.539062 22.175781 -36.722656 23.5 -36.890625 C 24.820312 -37.066406 26.203125 -37.035156 27.640625 -36.796875 C 28.171875 -36.710938 28.382812 -36.4375 28.28125 -35.96875 C 28.125 -35.207031 28.003906 -34.132812 27.921875 -32.75 C 27.835938 -31.363281 27.722656 -29.914062 27.578125 -28.40625 C 27.460938 -27.363281 27.375 -25.832031 27.3125 -23.8125 C 27.25 -21.789062 27.320312 -19.726562 27.53125 -17.625 C 27.738281 -15.519531 28.140625 -13.734375 28.734375 -12.265625 C 29.328125 -10.804688 30.171875 -10.128906 31.265625 -10.234375 C 32.515625 -10.359375 33.929688 -11.054688 35.515625 -12.328125 C 37.109375 -13.609375 38.691406 -15.125 40.265625 -16.875 C 41.847656 -18.632812 43.265625 -20.335938 44.515625 -21.984375 C 45.765625 -23.640625 46.6875 -24.875 47.28125 -25.6875 C 47.675781 -26.226562 48.15625 -26.273438 48.71875 -25.828125 Z M 7.921875 -8.046875 C 8.660156 -8.117188 9.648438 -8.8125 10.890625 -10.125 C 12.140625 -11.4375 13.4375 -13.203125 14.78125 -15.421875 C 16.125 -17.648438 17.257812 -20.113281 18.1875 -22.8125 C 17.351562 -23.6875 16.367188 -24.382812 15.234375 -24.90625 C 14.109375 -25.425781 12.84375 -25.613281 11.4375 -25.46875 C 9.957031 -25.394531 8.546875 -24.804688 7.203125 -23.703125 C 5.867188 -22.609375 4.800781 -21.1875 4 -19.4375 C 3.207031 -17.6875 2.878906 -15.703125 3.015625 -13.484375 C 3.117188 -11.785156 3.628906 -10.421875 4.546875 -9.390625 C 5.472656 -8.359375 6.597656 -7.910156 7.921875 -8.046875 Z M 7.921875 -8.046875 "/></g></g></g><g fill="#000000" fill-opacity="1"><g transform="translate(282.550919, 258.719979)"><g><path d="M 33.40625 -22.625 C 34.039062 -22.238281 34.203125 -21.734375 33.890625 -21.109375 C 33.535156 -20.109375 32.84375 -18.585938 31.8125 -16.546875 C 30.789062 -14.515625 29.457031 -12.390625 27.8125 -10.171875 C 26.175781 -7.960938 24.207031 -6.019531 21.90625 -4.34375 C 19.613281 -2.664062 17.035156 -1.6875 14.171875 -1.40625 C 9.890625 -0.976562 6.113281 -2.222656 2.84375 -5.140625 C -0.425781 -8.054688 -2.878906 -12.554688 -4.515625 -18.640625 C -6.160156 -24.734375 -6.726562 -32.390625 -6.21875 -41.609375 C -5.851562 -49.085938 -4.890625 -55.117188 -3.328125 -59.703125 C -1.773438 -64.296875 0.140625 -67.675781 2.421875 -69.84375 C 4.703125 -72.007812 7.140625 -73.179688 9.734375 -73.359375 C 12.328125 -73.535156 14.878906 -72.925781 17.390625 -71.53125 C 18.253906 -71.101562 19.164062 -70.171875 20.125 -68.734375 C 21.082031 -67.296875 21.75 -65.253906 22.125 -62.609375 C 22.5 -59.972656 22.234375 -56.617188 21.328125 -52.546875 C 20.421875 -48.472656 18.585938 -43.617188 15.828125 -37.984375 C 13.078125 -32.347656 8.988281 -25.757812 3.5625 -18.21875 C 4.53125 -15.195312 5.832031 -12.738281 7.46875 -10.84375 C 9.113281 -8.957031 11.15625 -8.132812 13.59375 -8.375 C 15.0625 -8.519531 16.507812 -9.242188 17.9375 -10.546875 C 19.375 -11.847656 20.726562 -13.394531 22 -15.1875 C 23.28125 -16.988281 24.394531 -18.738281 25.34375 -20.4375 C 26.300781 -22.132812 26.992188 -23.445312 27.421875 -24.375 C 27.710938 -25.144531 28.242188 -25.347656 29.015625 -24.984375 Z M 13.5 -66.921875 C 12.351562 -67.835938 11.015625 -67.769531 9.484375 -66.71875 C 7.953125 -65.675781 6.484375 -63.207031 5.078125 -59.3125 C 3.679688 -55.425781 2.582031 -49.601562 1.78125 -41.84375 C 1.59375 -39.96875 1.5 -37.925781 1.5 -35.71875 C 1.5 -33.519531 1.566406 -31.351562 1.703125 -29.21875 C 5.554688 -35.476562 8.445312 -40.859375 10.375 -45.359375 C 12.3125 -49.867188 13.578125 -53.644531 14.171875 -56.6875 C 14.765625 -59.738281 14.941406 -62.085938 14.703125 -63.734375 C 14.472656 -65.390625 14.070312 -66.453125 13.5 -66.921875 Z M 13.5 -66.921875 "/></g></g></g></svg>